<svg version="1.1" id="Layer_1" xmlns="http://www.w3.org/2000/svg" xmlns:xlink="http://www.w3.org/1999/xlink" x="0px" y="0px"
	 width="100%" viewBox="0 0 512 512" enable-background="new 0 0 512 512" xml:space="preserve">
<path fill="#FFFFFF" opacity="1.000000" stroke="none" 
	d="
M0.999999,160.000000 
	C1.000000,107.027664 1.000000,54.055321 1.000000,1.041491 
	C171.549911,1.041491 342.099854,1.041491 513.000000,1.041491 
	C513.000000,54.354836 513.000000,107.710442 512.632935,161.418686 
	C509.856476,151.263596 503.700073,143.290771 493.999329,139.188614 
	C482.822296,134.462189 471.101929,130.991318 459.542206,127.205132 
	C433.952026,118.823502 408.309418,110.602112 382.698212,102.284531 
	C359.529816,94.760300 336.433319,87.008652 313.195770,79.705208 
	C293.508698,73.517647 274.264160,82.420761 267.784088,102.569626 
	C260.718445,124.539047 253.386169,146.422531 246.252960,168.370422 
	C237.631958,194.896057 229.156998,221.469238 220.510971,247.986679 
	C210.127777,279.832092 199.401550,311.567932 189.311722,343.505371 
	C185.926025,354.222107 180.360825,364.576233 182.893219,376.693207 
	C185.456650,388.958588 191.597076,398.580872 203.315811,402.809235 
	C223.954727,410.256165 244.999146,416.577850 265.864655,423.398560 
	C296.636169,433.457428 327.357605,443.672272 358.189026,453.543823 
	C369.318848,457.107361 380.541992,460.832703 392.012024,462.772919 
	C408.630524,465.584076 423.347107,453.881287 428.084167,438.781067 
	C433.455566,421.658905 439.221130,404.660614 444.780701,387.597168 
	C453.469910,360.928345 462.132172,334.250732 470.801910,307.575562 
	C478.629547,283.491272 486.440277,259.401489 494.280365,235.321259 
	C500.503113,216.208588 506.758881,197.106689 513.000000,178.000000 
	C513.000000,289.625519 513.000000,401.251068 513.000000,512.938293 
	C342.437347,512.938293 171.874680,512.938293 1.000000,512.938293 
	C1.000000,402.644836 1.000000,292.289398 1.363810,181.564819 
	C3.451833,185.981522 5.300100,190.726807 6.879645,195.559921 
	C15.590685,222.214096 24.273405,248.877655 32.893536,275.561371 
	C41.416203,301.943359 49.737999,328.390717 58.358311,354.740570 
	C67.771202,383.513092 77.267021,412.260681 87.032440,440.914948 
	C93.168129,458.918640 110.716820,466.230957 128.301956,462.141022 
	C136.581055,460.215485 144.623688,457.273285 153.538910,454.558685 
	C152.059326,453.753418 151.395004,453.339020 150.688965,453.015747 
	C143.311920,449.637543 135.270859,447.234344 128.674149,442.719513 
	C111.479912,430.951752 102.346786,413.597870 102.227509,393.178772 
	C101.701141,303.067078 101.987762,212.950546 102.045708,122.835815 
	C102.047974,119.311455 102.721611,115.787514 103.116913,111.926384 
	C101.452637,112.097084 100.272232,112.013191 99.231636,112.354965 
	C75.793076,120.053375 52.411674,127.928505 28.926697,135.481766 
	C16.580515,139.452545 6.840311,146.002029 2.542575,158.900131 
	C2.381243,159.384323 1.529832,159.638596 0.999999,160.000000 
M129.000000,169.500000 
	C129.000000,243.996078 129.096954,318.492401 128.909622,392.988037 
	C128.876343,406.223114 139.435333,421.983429 152.904816,426.102600 
	C165.733002,430.025665 178.670883,426.715240 190.782150,428.123901 
	C183.906540,421.958862 176.278244,416.242706 170.057053,409.270935 
	C161.257507,399.409729 156.854294,387.395630 155.918106,374.026917 
	C154.989044,360.760315 159.908249,348.855316 163.764740,336.717560 
	C172.260162,309.979523 181.054398,283.336365 189.741898,256.659454 
	C197.486542,232.877853 205.270905,209.109192 213.003067,185.323578 
	C223.750870,152.261230 234.466293,119.188370 245.234406,86.000343 
	C216.890411,86.000343 188.271072,85.994324 159.651764,86.026886 
	C158.709900,86.027954 157.774551,86.454407 156.825989,86.626587 
	C140.455688,89.598106 128.025620,105.784233 128.848892,123.009720 
	C129.572083,138.140991 129.000000,153.334167 129.000000,169.500000 
z"/>
<path fill="#000000" opacity="1.000000" stroke="none" 
	d="
M513.000000,177.533142 
	C506.758881,197.106689 500.503113,216.208588 494.280365,235.321259 
	C486.440277,259.401489 478.629547,283.491272 470.801910,307.575562 
	C462.132172,334.250732 453.469910,360.928345 444.780701,387.597168 
	C439.221130,404.660614 433.455566,421.658905 428.084167,438.781067 
	C423.347107,453.881287 408.630524,465.584076 392.012024,462.772919 
	C380.541992,460.832703 369.318848,457.107361 358.189026,453.543823 
	C327.357605,443.672272 296.636169,433.457428 265.864655,423.398560 
	C244.999146,416.577850 223.954727,410.256165 203.315811,402.809235 
	C191.597076,398.580872 185.456650,388.958588 182.893219,376.693207 
	C180.360825,364.576233 185.926025,354.222107 189.311722,343.505371 
	C199.401550,311.567932 210.127777,279.832092 220.510971,247.986679 
	C229.156998,221.469238 237.631958,194.896057 246.252960,168.370422 
	C253.386169,146.422531 260.718445,124.539047 267.784088,102.569626 
	C274.264160,82.420761 293.508698,73.517647 313.195770,79.705208 
	C336.433319,87.008652 359.529816,94.760300 382.698212,102.284531 
	C408.309418,110.602112 433.952026,118.823502 459.542206,127.205132 
	C471.101929,130.991318 482.822296,134.462189 493.999329,139.188614 
	C503.700073,143.290771 509.856476,151.263596 512.632935,161.885666 
	C513.000000,167.022095 513.000000,172.044189 513.000000,177.533142 
M419.972534,284.314240 
	C426.109528,275.059448 430.672424,265.037384 430.864166,253.872681 
	C431.141449,237.723740 425.148834,224.308228 410.432037,216.236389 
	C402.238556,211.742493 393.498413,209.661728 383.832947,211.844833 
	C374.357330,213.985077 367.383362,219.735825 360.731598,225.502594 
	C357.845184,219.166321 355.127838,212.728058 352.024323,206.481659 
	C344.293365,190.921539 322.905090,183.615387 306.823700,190.820053 
	C289.171814,198.728287 280.038818,213.387299 278.118622,232.221802 
	C276.225250,250.793518 281.278656,268.207458 288.986145,284.958649 
	C297.538025,303.545013 309.172852,320.160065 321.841644,336.076874 
	C322.869110,337.367737 326.036713,337.922302 327.851959,337.448364 
	C334.966156,335.590820 341.994843,333.351166 348.948975,330.946106 
	C364.784058,325.469513 379.865967,318.429688 393.819885,309.043182 
	C403.720093,302.383514 412.059143,294.118774 419.972534,284.314240 
z"/>
<path fill="#000000" opacity="1.000000" stroke="none" 
	d="
M0.999999,160.468536 
	C1.529832,159.638596 2.381243,159.384323 2.542575,158.900131 
	C6.840311,146.002029 16.580515,139.452545 28.926697,135.481766 
	C52.411674,127.928505 75.793076,120.053375 99.231636,112.354965 
	C100.272232,112.013191 101.452637,112.097084 103.116913,111.926384 
	C102.721611,115.787514 102.047974,119.311455 102.045708,122.835815 
	C101.987762,212.950546 101.701141,303.067078 102.227509,393.178772 
	C102.346786,413.597870 111.479912,430.951752 128.674149,442.719513 
	C135.270859,447.234344 143.311920,449.637543 150.688965,453.015747 
	C151.395004,453.339020 152.059326,453.753418 153.538910,454.558685 
	C144.623688,457.273285 136.581055,460.215485 128.301956,462.141022 
	C110.716820,466.230957 93.168129,458.918640 87.032440,440.914948 
	C77.267021,412.260681 67.771202,383.513092 58.358311,354.740570 
	C49.737999,328.390717 41.416203,301.943359 32.893536,275.561371 
	C24.273405,248.877655 15.590685,222.214096 6.879645,195.559921 
	C5.300100,190.726807 3.451833,185.981522 1.363810,181.097839 
	C1.000000,174.312363 1.000000,167.624710 0.999999,160.468536 
z"/>
<path fill="#000000" opacity="1.000000" stroke="none" 
	d="
M129.000000,169.000000 
	C129.000000,153.334167 129.572083,138.140991 128.848892,123.009720 
	C128.025620,105.784233 140.455688,89.598106 156.825989,86.626587 
	C157.774551,86.454407 158.709900,86.027954 159.651764,86.026886 
	C188.271072,85.994324 216.890411,86.000343 245.234406,86.000343 
	C234.466293,119.188370 223.750870,152.261230 213.003067,185.323578 
	C205.270905,209.109192 197.486542,232.877853 189.741898,256.659454 
	C181.054398,283.336365 172.260162,309.979523 163.764740,336.717560 
	C159.908249,348.855316 154.989044,360.760315 155.918106,374.026917 
	C156.854294,387.395630 161.257507,399.409729 170.057053,409.270935 
	C176.278244,416.242706 183.906540,421.958862 190.782150,428.123901 
	C178.670883,426.715240 165.733002,430.025665 152.904816,426.102600 
	C139.435333,421.983429 128.876343,406.223114 128.909622,392.988037 
	C129.096954,318.492401 129.000000,243.996078 129.000000,169.000000 
z"/>
<path fill="#FFFFFF" opacity="1.000000" stroke="none" 
	d="
M419.773315,284.628296 
	C412.059143,294.118774 403.720093,302.383514 393.819885,309.043182 
	C379.865967,318.429688 364.784058,325.469513 348.948975,330.946106 
	C341.994843,333.351166 334.966156,335.590820 327.851959,337.448364 
	C326.036713,337.922302 322.869110,337.367737 321.841644,336.076874 
	C309.172852,320.160065 297.538025,303.545013 288.986145,284.958649 
	C281.278656,268.207458 276.225250,250.793518 278.118622,232.221802 
	C280.038818,213.387299 289.171814,198.728287 306.823700,190.820053 
	C322.905090,183.615387 344.293365,190.921539 352.024323,206.481659 
	C355.127838,212.728058 357.845184,219.166321 360.731598,225.502594 
	C367.383362,219.735825 374.357330,213.985077 383.832947,211.844833 
	C393.498413,209.661728 402.238556,211.742493 410.432037,216.236389 
	C425.148834,224.308228 431.141449,237.723740 430.864166,253.872681 
	C430.672424,265.037384 426.109528,275.059448 419.773315,284.628296 
z"/>
</svg>